<?xml version="1.0" encoding="utf-8"?>
<!-- Svg Vector Icons : http://www.onlinewebfonts.com/icon -->
<!DOCTYPE svg PUBLIC "-//W3C//DTD SVG 1.1//EN" "http://www.w3.org/Graphics/SVG/1.1/DTD/svg11.dtd">
<svg version="1.1" xmlns="http://www.w3.org/2000/svg" xmlns:xlink="http://www.w3.org/1999/xlink" x="0px" y="0px" viewBox="0 0 1000 1000" enable-background="new 0 0 1000 1000" xml:space="preserve">
<metadata> Svg Vector Icons : http://www.onlinewebfonts.com/icon </metadata>
<g><g><g><path d="M375.8,912.6c13.5,0,24.5-11,24.5-24.5v-242c0-13.5-11-24.5-24.5-24.5c-13.5,0-24.5,11-24.5,24.5v242C351.3,901.7,362.3,912.6,375.8,912.6z"/><circle cx="375.8" cy="964.8" r="25.2"/><path d="M452.6,839.1c13.5,0,24.5-11,24.5-24.5v-242c0-13.5-11-24.5-24.5-24.5s-24.5,11-24.5,24.5v242C428,828.1,439,839.1,452.6,839.1z"/><circle cx="452.6" cy="891.3" r="25.2"/><path d="M299.1,777.8c13.5,0,24.5-11,24.5-24.5v-242c0-13.5-11-24.5-24.5-24.5c-13.5,0-24.5,11-24.5,24.5v242C274.6,766.8,285.6,777.8,299.1,777.8z"/><circle cx="299.1" cy="830" r="25.2"/><path d="M963.8,310.5c-5.7-5.8-13.8-8.4-21.8-6.9c-13.9,2.5-27,3.7-39.8,3.7c-124.1,0-225-100.9-225-224.9c0-14.2,1.4-28.7,4.2-43.2c1.6-7.9-0.9-16.1-6.6-21.9c-5.7-5.8-13.8-8.4-21.8-6.9C548.7,29,465.4,106.5,437.7,207c-25.3-9.7-52.5-14.9-80.7-14.9c-39.4,0-78.3,10.5-112.6,30.4c-23,13.3-43.2,30.4-60.2,50.7c-25.4,1.6-50.3,9.1-72.6,22C60.8,324.7,29.2,379.4,29.2,438c0,58.5,31.6,113.2,82.4,142.7c9.7,5.6,20.1,10.2,31.1,13.8c13,40.6,37.1,76.4,70.3,104.2c10.4,8.7,25.8,7.3,34.5-3.1c8.7-10.4,7.3-25.8-3.1-34.5c-29-24.3-49.1-56.2-58.2-92.4c-2.2-8.9-9.3-15.8-18.2-17.9c-11.7-2.7-22.4-6.9-31.9-12.4c-35.8-20.7-58-59.1-58-100.2c0-41.1,22.2-79.6,58-100.3c17.7-10.2,37.7-15.6,56.8-15.7c0.6,0,2.2,0.2,2.8,0.2c8.1,0.3,15.3-3.5,20.1-9.8c14.5-19.4,32.3-35.3,53.1-47.3c26.8-15.5,57.2-23.8,88-23.8c62.5,0,119,32.2,151.1,86.2c5.2,8.7,14.9,13,24.4,11.7c4.4,0.3,9-0.5,13.3-2.8c10.5-5.6,22.1-8.5,33.9-9c13.3,0.3,26.5,3.8,38.3,10.5c24.6,14.3,39.9,40.7,39.9,68.9c0,14.4-3.9,28.4-11.2,40.8c-5.2,8.8-4.5,19.9,1.8,27.8c16.5,20.7,25.2,45.5,25.2,71.8c0,41.1-22.2,79.6-58,100.3c-25.9,15-56.7,19.6-86.4,12c-13.2-3.3-26.5,4.5-29.9,17.6c-3.4,13.1,4.5,26.5,17.6,29.9c13.5,3.5,27.2,5.2,40.8,5.2c28.9,0,57.4-7.7,82.5-22.3c49.1-28.5,80.2-80.5,82.3-136.8c121.8-9.3,224.4-99.1,248.1-220.5C971.9,324.5,969.4,316.3,963.8,310.5z M721.5,504c-4.4-16.5-11.2-32.1-20.3-46.3c7-16.1,10.7-33.5,10.7-51.2c0-45.7-24.6-88.3-64.3-111.4c-20.9-12.1-45-17.7-68.9-16.9c-12.1-0.1-24.3,1.7-35.9,5c-16.3-21.9-36.6-40.7-59.9-55.6c17.9-75.2,73.4-135.7,145.8-160.4c-0.3,5.1-0.4,10.2-0.4,15.2c0,151.1,122.9,274,274,274c3.6,0,7.3-0.1,11-0.2C883.7,437.9,808.9,496.2,721.5,504z"/></g></g><g></g><g></g><g></g><g></g><g></g><g></g><g></g><g></g><g></g><g></g><g></g><g></g><g></g><g></g><g></g></g>
</svg>