<?xml version="1.0" encoding="UTF-8"?>
<svg width="20px" height="31px" viewBox="0 0 20 31" version="1.1" xmlns="http://www.w3.org/2000/svg" xmlns:xlink="http://www.w3.org/1999/xlink">
    <!-- Generator: Sketch 55 (78076) - https://sketchapp.com -->
    <title>路径</title>
    <desc>Created with Sketch.</desc>
    <g id="上下结构" stroke="none" stroke-width="1" fill="none" fill-rule="evenodd">
        <g id="已办跟踪-GIS呈现-1" transform="translate(-56.000000, -402.000000)" fill="#F04134" fill-rule="nonzero">
            <g id="编组-7" transform="translate(24.000000, 324.000000)">
                <g id="编组-11" transform="translate(32.000000, 78.000000)">
                    <g id="编组-8">
                        <g id="编组" transform="translate(0.000000, 0.000000)">
                            <path d="M9.9609375,0.0371875 C4.4609375,0.0371875 0.0009375,4.4971875 0.0009375,9.9971875 C0.0009375,12.4971875 0.9209375,14.9571875 2.4609375,16.8771875 C2.8609375,17.3971875 3.3209375,17.8571875 3.8009375,18.2971875 C3.9009375,18.3771875 4.0209375,18.4771875 4.1209375,18.5771875 C7.2209375,21.2771875 9.2009375,25.2571875 9.2009375,29.6971875 L9.2009375,29.9371875 L9.2209375,29.9371875 C9.2809375,30.0971875 9.5809375,30.2171875 9.9609375,30.2171875 C10.3409375,30.2171875 10.6609375,30.0971875 10.7009375,29.9371875 L10.7009375,29.8971875 L10.7009375,29.8771875 L10.7009375,29.6971875 C10.7009375,25.3771875 12.5609375,21.4971875 15.5209375,18.7971875 C15.7809375,18.5971875 16.0409375,18.3771875 16.2809375,18.1571875 C16.7009375,17.7571875 17.1009375,17.3371875 17.4609375,16.8771875 C18.9809375,14.9571875 19.9209375,12.4971875 19.9209375,9.9971875 C19.9209375,4.4971875 15.4609375,0.0371875 9.9609375,0.0371875 Z" id="路径"></path>
                        </g>
                    </g>
                </g>
            </g>
        </g>
    </g>
</svg>